<?xml version="1.0" encoding="UTF-8" standalone="no"?><svg xmlns:svg="http://www.w3.org/2000/svg" xmlns="http://www.w3.org/2000/svg" version="1.0" width="221.83" height="49.476002"><g transform="matrix(1.2500182,0,0,1.2500182,-380.15555,-3.224751)"><polygon points="304.92,3.38 304.92,41.36 314.64,41.36 314.64,12.38 322.56,12.38 322.56,41.36 332.1,41.36 332.1,12.38 340.2,12.38 340.2,41.36 349.74,41.36 349.74,3.38 304.92,3.38" style="fill:#1e2a63" /><polygon points="412.38,3.38 412.38,17.6 402.48,17.6 402.48,3.38 392.94,3.38 392.94,41.36 402.48,41.36 402.48,26.6 412.38,26.6 412.38,41.36 421.92,41.36 421.92,3.38 412.38,3.38" style="fill:#1e2a63" /><polygon points="439.02,32.72 439.02,3.38 429.48,3.38 429.48,41.36 451.08,41.36 451.08,32.72 439.02,32.72" style="fill:#1e2a63" /><polygon points="480.78,11.84 480.78,3.38 462.42,3.38 462.42,3.38 456.3,3.38 456.3,41.36 462.42,41.36 462.42,41.36 480.78,41.36 480.78,32.9 465.84,32.9 465.84,26.6 480.78,26.6 480.78,18.14 465.84,18.14 465.84,11.84 480.78,11.84" style="fill:#1e2a63" /><path d="M 356.94,3.38 L 356.94,41.36 L 366.66,41.36 L 366.66,32 L 376.02,32 L 376.02,41.36 L 385.56,41.36 L 385.56,3.38 L 356.94,3.38 z M 366.66,23 L 366.66,12.2 L 376.02,12.2 L 376.02,23 L 366.66,23 z" style="fill:#1e2a63" /></g></svg>
